<?xml version="1.0" standalone="no"?>
<!DOCTYPE svg PUBLIC "-//W3C//DTD SVG 20010904//EN"
 "http://www.w3.org/TR/2001/REC-SVG-20010904/DTD/svg10.dtd">
<svg version="1.0" xmlns="http://www.w3.org/2000/svg"
 width="512.000000pt" height="512.000000pt" viewBox="0 0 512.000000 512.000000"
 preserveAspectRatio="xMidYMid meet">

<g transform="translate(0.000000,512.000000) scale(0.100000,-0.100000)"
fill="#000000" stroke="none">
<path d="M752 5100 c-109 -29 -187 -74 -272 -160 -87 -86 -131 -163 -160 -276
-25 -98 -25 -190 0 -288 29 -113 73 -190 160 -276 85 -86 163 -131 272 -160
40 -10 71 -19 68 -20 -3 0 -46 -9 -95 -19 -340 -70 -605 -320 -697 -656 -19
-73 -22 -110 -26 -396 -4 -306 -3 -318 17 -358 34 -65 76 -81 215 -81 l116 0
6 -27 c142 -656 594 -1233 1196 -1526 111 -54 127 -65 121 -82 -3 -11 -8 -162
-10 -336 -5 -306 -4 -318 16 -358 14 -27 35 -48 61 -61 38 -20 57 -20 820 -20
763 0 782 0 820 20 26 13 47 34 61 61 20 40 21 52 16 358 -2 174 -7 325 -10
336 -6 17 10 28 121 82 482 234 891 674 1085 1168 33 82 97 289 112 358 l5 27
116 0 c139 0 181 16 215 81 20 40 21 52 17 358 -4 286 -7 323 -26 396 -73 264
-248 474 -495 591 -74 35 -210 74 -257 74 -52 0 -39 14 30 31 107 27 185 73
270 159 87 86 131 163 160 276 25 98 25 190 0 288 -29 113 -73 190 -160 276
-86 87 -163 131 -276 160 -236 61 -491 -34 -629 -234 l-38 -55 -98 50 c-332
166 -656 242 -1039 242 -379 0 -703 -75 -1031 -239 l-106 -53 -38 55 c-138
200 -397 296 -633 234z m2004 -301 c277 -27 573 -120 793 -248 54 -32 71 -47
71 -64 1 -52 32 -164 66 -235 73 -152 239 -282 404 -316 l65 -13 -40 -8 c-167
-30 -274 -70 -390 -146 -181 -118 -317 -308 -377 -524 -19 -73 -22 -110 -26
-396 -4 -306 -3 -318 17 -358 14 -27 35 -48 61 -61 38 -19 58 -20 550 -20
l512 0 -7 -32 c-30 -143 -147 -412 -245 -563 -195 -297 -461 -535 -778 -694
-45 -23 -88 -41 -95 -41 -8 0 -31 25 -51 55 -54 77 -181 195 -264 245 -92 54
-200 96 -287 110 -105 18 -106 20 -27 41 109 28 187 73 272 159 87 86 131 163
160 276 36 141 18 294 -52 427 -42 81 -164 203 -245 245 -80 42 -198 72 -283
72 -85 0 -203 -30 -283 -72 -81 -42 -203 -164 -245 -245 -70 -133 -88 -286
-52 -427 29 -113 73 -190 160 -276 85 -86 163 -131 272 -159 80 -21 80 -21
-39 -44 -203 -38 -413 -177 -540 -354 l-45 -63 -110 56 c-318 163 -574 392
-768 689 -98 151 -215 420 -245 563 l-7 32 512 0 c492 0 512 1 550 20 26 13
47 34 61 61 20 40 21 52 17 358 -4 286 -7 323 -26 396 -73 264 -248 474 -495
591 -71 33 -209 74 -253 74 -58 0 -55 14 7 27 104 21 204 76 285 157 103 104
162 222 179 363 l7 52 76 45 c331 193 773 285 1178 245z"/>
</g>
</svg>
