<?xml version="1.0" standalone="no"?>
<!DOCTYPE svg PUBLIC "-//W3C//DTD SVG 20010904//EN"
 "http://www.w3.org/TR/2001/REC-SVG-20010904/DTD/svg10.dtd">
<svg version="1.0" xmlns="http://www.w3.org/2000/svg"
 width="512.000000pt" height="512.000000pt" viewBox="0 0 512.000000 512.000000"
 preserveAspectRatio="xMidYMid meet">

<g transform="translate(0.000000,512.000000) scale(0.100000,-0.100000)"
fill="#000000" stroke="none">
<path d="M2620 5104 c-207 -55 -343 -265 -309 -477 14 -87 38 -135 126 -253
l77 -104 68 0 68 0 0 131 0 131 -40 45 c-22 25 -42 61 -46 79 -20 109 58 204
169 204 58 0 98 -19 132 -64 50 -65 45 -153 -11 -215 l-34 -38 0 -137 0 -136
64 0 64 0 73 98 c125 169 156 273 125 414 -53 239 -291 385 -526 322z"/>
<path d="M2560 4040 c0 -51 4 -65 25 -85 23 -24 30 -25 145 -25 115 0 122 1
145 25 21 20 25 34 25 85 l0 60 -170 0 -170 0 0 -60z"/>
<path d="M2643 3383 c-83 -57 -843 -686 -843 -698 0 -19 42 -76 73 -99 28 -21
35 -21 835 -24 546 -2 819 0 843 8 42 12 109 80 109 109 0 14 -126 123 -407
353 -223 183 -422 343 -442 355 -52 33 -117 31 -168 -4z"/>
<path d="M4582 3323 c-24 -9 -377 -732 -390 -797 -15 -73 -15 -146 -2 -217 41
-219 266 -378 480 -341 143 26 259 112 322 239 31 63 33 76 37 185 2 91 -1
128 -14 170 -29 88 -363 746 -384 758 -21 11 -29 11 -49 3z"/>
<path d="M553 3189 c-16 -45 -24 -54 -62 -71 -44 -19 -44 -19 -98 4 l-54 22
-79 -79 -79 -78 24 -48 c24 -47 24 -48 8 -93 -15 -41 -23 -48 -70 -68 l-53
-22 0 -112 0 -112 50 -17 c44 -15 52 -22 71 -63 l20 -47 -24 -51 -25 -51 78
-78 79 -78 52 22 c50 20 54 21 95 5 37 -14 45 -23 64 -70 l22 -54 112 0 111 0
18 51 c16 44 24 53 64 71 l46 20 44 -21 c24 -11 49 -21 56 -21 7 0 46 34 87
75 l74 75 -22 45 c-27 56 -27 66 -2 115 16 31 29 41 70 55 l50 17 0 113 0 113
-50 17 c-41 14 -54 24 -70 55 -25 49 -25 59 2 115 l22 45 -74 75 c-41 41 -80
75 -87 75 -7 0 -32 -10 -56 -21 l-44 -21 -46 20 c-40 18 -48 27 -64 71 l-18
51 -112 0 -112 0 -18 -51z m212 -214 c100 -26 172 -85 223 -180 24 -45 27 -61
27 -150 0 -89 -3 -105 -27 -150 -108 -204 -373 -251 -537 -97 -135 127 -144
335 -21 475 41 47 100 82 170 101 71 19 94 19 165 1z"/>
<path d="M2050 1965 l0 -425 170 0 170 0 0 340 0 340 340 0 340 0 0 -340 0
-340 170 0 170 0 0 425 0 425 -680 0 -680 0 0 -425z"/>
<path d="M2560 1795 l0 -255 170 0 170 0 0 255 0 255 -170 0 -170 0 0 -255z"/>
<path d="M2540 1175 c-81 -18 -168 -49 -241 -86 -55 -27 -212 -140 -225 -161
-4 -5 20 -36 51 -69 l58 -58 61 48 c144 114 272 162 456 169 106 4 139 1 210
-17 107 -26 227 -85 306 -150 l61 -50 57 58 c31 31 56 60 56 64 0 15 -151 125
-226 164 -137 71 -235 95 -409 99 -106 3 -169 -1 -215 -11z"/>
<path d="M2586 835 c-82 -21 -180 -71 -233 -119 l-44 -41 59 -58 59 -59 53 40
c152 115 386 107 523 -17 l28 -25 61 61 c33 33 58 66 54 71 -15 24 -158 111
-217 132 -83 29 -256 36 -343 15z"/>
<path d="M2625 486 c-55 -25 -110 -81 -132 -134 -23 -56 -18 -152 11 -210 98
-194 379 -183 464 17 19 45 20 134 3 185 -45 133 -216 203 -346 142z"/>
</g>
</svg>
