<?xml version="1.0" standalone="no"?>
<!DOCTYPE svg PUBLIC "-//W3C//DTD SVG 20010904//EN"
 "http://www.w3.org/TR/2001/REC-SVG-20010904/DTD/svg10.dtd">
<svg version="1.0" xmlns="http://www.w3.org/2000/svg"
 width="512.000000pt" height="512.000000pt" viewBox="0 0 512.000000 512.000000"
 preserveAspectRatio="xMidYMid meet">

<g transform="translate(0.000000,512.000000) scale(0.100000,-0.100000)"
fill="#000000" stroke="none">
<path d="M2260 4420 l0 -700 300 0 300 0 0 700 0 700 -300 0 -300 0 0 -700z"/>
<path d="M1876 4755 c-255 -145 -467 -385 -582 -656 -42 -98 -81 -237 -90
-320 l-7 -59 382 0 381 0 0 540 c0 297 -1 540 -3 540 -1 0 -38 -20 -81 -45z"/>
<path d="M3160 4261 l0 -541 381 0 382 0 -7 58 c-9 81 -51 227 -91 323 -115
274 -339 522 -597 664 l-68 37 0 -541z"/>
<path d="M850 3230 l0 -190 1710 0 1710 0 0 190 0 190 -1710 0 -1710 0 0 -190z"/>
<path d="M1190 2568 c0 -198 15 -312 61 -456 99 -309 304 -574 585 -754 120
-77 291 -144 457 -180 144 -31 389 -31 532 0 145 31 215 56 350 122 331 165
579 455 694 813 46 143 61 256 61 455 l0 172 -1370 0 -1370 0 0 -172z"/>
<path d="M1078 1389 c-465 -49 -862 -363 -1012 -801 -46 -134 -57 -204 -63
-400 l-6 -188 622 0 621 0 0 700 0 700 -42 -1 c-24 -1 -78 -5 -120 -10z"/>
<path d="M3880 700 l0 -700 621 0 622 0 -6 188 c-4 154 -10 205 -31 288 -110
440 -450 782 -878 884 -78 18 -237 39 -300 40 l-28 0 0 -700z"/>
<path d="M1540 595 l0 -595 1020 0 1020 0 0 595 c0 327 -2 595 -4 595 -3 0
-42 -25 -88 -56 -177 -119 -381 -204 -607 -251 -110 -23 -150 -26 -316 -27
-211 0 -330 17 -515 76 -121 38 -311 130 -418 202 -46 31 -85 56 -88 56 -2 0
-4 -268 -4 -595z"/>
</g>
</svg>
