<?xml version="1.0" standalone="no"?>
<!DOCTYPE svg PUBLIC "-//W3C//DTD SVG 20010904//EN"
 "http://www.w3.org/TR/2001/REC-SVG-20010904/DTD/svg10.dtd">
<svg version="1.0" xmlns="http://www.w3.org/2000/svg"
 width="512.000000pt" height="512.000000pt" viewBox="0 0 512.000000 512.000000"
 preserveAspectRatio="xMidYMid meet">

<g transform="translate(0.000000,512.000000) scale(0.100000,-0.100000)"
fill="#000000" stroke="none">
<path d="M1713 5101 c-87 -24 -131 -46 -209 -105 -121 -91 -210 -246 -229
-399 l-7 -55 -97 -65 c-427 -289 -771 -744 -934 -1237 -90 -269 -127 -499
-127 -785 0 -511 143 -974 431 -1396 79 -116 235 -298 265 -309 49 -19 112 32
99 81 -4 13 -47 71 -97 129 -266 309 -446 691 -518 1100 -28 156 -38 485 -21
641 33 287 113 554 241 805 55 106 180 306 199 318 5 3 19 -21 31 -54 27 -73
84 -154 136 -196 52 -41 414 -260 478 -290 28 -13 103 -32 166 -44 63 -11 124
-23 135 -26 65 -20 134 -117 117 -164 -6 -15 -58 -48 -162 -104 -125 -66 -160
-90 -182 -122 -41 -58 -162 -527 -156 -602 9 -103 97 -182 203 -182 73 0 131
33 177 101 70 103 78 110 112 107 29 -3 39 -16 162 -228 87 -148 143 -234 165
-251 21 -17 110 -52 235 -93 135 -45 208 -74 221 -89 59 -65 59 -125 -2 -226
-51 -85 -59 -116 -53 -204 5 -82 26 -122 115 -220 108 -117 113 -128 113 -220
0 -43 -5 -88 -11 -100 -6 -12 -37 -47 -69 -78 -76 -73 -92 -107 -98 -199 -3
-57 1 -89 16 -134 l20 -59 -125 7 c-484 26 -943 196 -1317 490 -33 25 -69 46
-81 46 -38 0 -75 -37 -75 -75 0 -43 47 -85 220 -200 394 -262 810 -394 1290
-412 569 -21 1161 178 1620 544 485 386 825 1017 891 1651 17 169 7 506 -21
661 -91 515 -321 962 -680 1322 -69 69 -157 151 -195 182 -115 91 -277 197
-303 197 -56 0 -93 -50 -72 -99 6 -14 38 -44 73 -66 125 -80 265 -193 375
-302 l113 -111 -30 -61 c-56 -110 -92 -138 -195 -156 -58 -10 -127 -48 -168
-93 -19 -21 -61 -87 -92 -145 -58 -108 -100 -155 -139 -159 -12 -1 -71 -2
-132 -3 -131 -1 -212 -24 -306 -87 -119 -80 -181 -187 -228 -394 -16 -73 -39
-151 -51 -174 -11 -23 -74 -113 -140 -200 -93 -125 -120 -168 -128 -207 -22
-102 10 -163 138 -260 150 -113 178 -126 265 -121 l72 5 6 -71 c18 -202 145
-464 327 -674 36 -42 83 -89 105 -104 89 -62 222 -60 308 6 97 74 268 315 338
476 20 47 41 84 45 83 5 -2 80 -57 167 -124 l158 -121 -32 -56 c-191 -341
-479 -643 -810 -849 -250 -156 -571 -272 -874 -318 -149 -22 -151 -22 -176 27
-12 24 -24 70 -27 104 l-5 62 76 80 c97 104 111 142 105 290 -5 130 -17 157
-121 268 -98 105 -107 120 -107 174 0 37 9 61 48 125 l47 80 0 95 c0 107 -11
138 -74 203 -49 53 -82 68 -295 138 l-185 60 -126 217 c-70 119 -137 228 -148
240 -41 45 -94 64 -163 60 -84 -5 -129 -36 -185 -128 -45 -72 -68 -88 -108
-75 -39 12 -36 48 23 279 31 121 62 233 68 248 8 22 38 42 142 94 72 37 146
77 164 91 108 81 98 261 -22 371 -64 59 -111 79 -240 102 -64 12 -134 27 -155
34 -56 21 -430 252 -474 294 -48 45 -68 84 -100 189 l-25 82 56 62 c88 96 367
329 396 329 3 0 6 -9 6 -19 0 -11 11 -55 25 -98 72 -229 302 -560 430 -619 72
-34 163 -33 234 2 106 53 291 302 383 515 79 185 105 397 65 532 -10 32 -15
62 -12 67 8 13 210 13 350 0 214 -20 445 -74 636 -150 56 -22 112 -40 125 -40
55 0 87 86 46 123 -39 35 -276 120 -452 161 -204 48 -309 60 -565 61 l-240 1
-48 46 c-105 103 -234 158 -387 164 -73 3 -112 0 -167 -15z m250 -146 c83 -21
133 -50 198 -112 106 -101 152 -241 129 -396 -27 -190 -124 -390 -283 -582
-71 -86 -99 -105 -157 -105 -42 0 -48 4 -100 60 -79 83 -162 202 -219 311
-155 296 -145 547 27 711 117 112 258 151 405 113z m2512 -1221 c198 -297 323
-630 370 -988 19 -147 19 -445 1 -586 -27 -194 -89 -431 -153 -578 l-19 -44
-173 134 -174 134 -1 134 c-1 114 -5 146 -24 202 -63 182 -218 329 -401 380
-81 22 -225 24 -305 3 -179 -47 -338 -192 -401 -367 -19 -54 -27 -65 -56 -75
-71 -25 -94 -18 -204 62 -57 41 -105 83 -107 93 -7 30 8 56 130 220 65 88 128
184 140 213 12 30 35 114 52 188 42 192 91 264 220 325 61 29 71 30 170 29
216 -4 291 39 385 221 54 102 87 151 114 165 10 6 51 17 91 25 109 23 173 71
232 174 16 28 31 52 33 52 2 0 38 -52 80 -116z m-594 -1364 c33 -12 77 -31 97
-44 60 -38 131 -122 165 -194 27 -57 32 -81 35 -163 9 -206 -89 -439 -286
-679 -108 -133 -165 -143 -257 -46 -116 122 -241 328 -292 481 -24 70 -27 97
-27 210 -1 126 0 132 31 197 52 110 148 200 256 238 74 26 200 26 278 0z"/>
<path d="M1754 4772 c-160 -75 -206 -268 -98 -409 60 -79 193 -115 291 -78
101 39 173 140 173 245 0 93 -61 194 -144 237 -49 26 -172 28 -222 5z m183
-167 c33 -33 35 -39 30 -82 -9 -87 -94 -130 -167 -86 -62 36 -72 125 -19 174
25 23 40 29 76 29 38 0 50 -5 80 -35z"/>
<path d="M3667 2206 c-100 -37 -159 -103 -179 -198 -34 -161 88 -312 252 -312
280 -1 367 368 117 495 -52 27 -140 34 -190 15z m156 -175 c54 -53 35 -144
-37 -179 -89 -44 -189 66 -141 154 37 68 123 81 178 25z"/>
</g>
</svg>
