<?xml version="1.0" standalone="no"?>
<!DOCTYPE svg PUBLIC "-//W3C//DTD SVG 20010904//EN"
 "http://www.w3.org/TR/2001/REC-SVG-20010904/DTD/svg10.dtd">
<svg version="1.0" xmlns="http://www.w3.org/2000/svg"
 width="512.000000pt" height="512.000000pt" viewBox="0 0 512.000000 512.000000"
 preserveAspectRatio="xMidYMid meet">

<g transform="translate(0.000000,512.000000) scale(0.100000,-0.100000)"
fill="#000000" stroke="none">
<path d="M2440 4345 l0 -715 325 0 325 0 0 -1785 0 -1785 1015 0 1015 0 0
2290 0 2290 -22 5 c-13 3 -603 95 -1313 205 -710 110 -1302 202 -1317 204
l-28 6 0 -715z m1450 -2010 l0 -1295 -160 0 -160 0 0 1295 0 1295 160 0 160 0
0 -1295z m730 -220 l0 -1515 -160 0 -160 0 0 1515 0 1515 160 0 160 0 0 -1515z"/>
<path d="M1140 1685 l0 -1625 813 2 812 3 3 1623 2 1622 -815 0 -815 0 0
-1625z m1050 815 l0 -160 -240 0 -240 0 0 160 0 160 240 0 240 0 0 -160z m0
-730 l0 -160 -240 0 -240 0 0 160 0 160 240 0 240 0 0 -160z m0 -730 l0 -160
-240 0 -240 0 0 160 0 160 240 0 240 0 0 -160z"/>
<path d="M0 1280 l0 -1220 408 2 407 3 0 350 0 350 -157 3 -158 3 0 159 0 160
160 0 160 0 0 210 0 210 -160 0 -160 0 0 160 0 159 158 3 157 3 0 330 0 330
-407 3 -408 2 0 -1220z"/>
</g>
</svg>
