<?xml version="1.0" standalone="no"?>
<!DOCTYPE svg PUBLIC "-//W3C//DTD SVG 20010904//EN"
 "http://www.w3.org/TR/2001/REC-SVG-20010904/DTD/svg10.dtd">
<svg version="1.0" xmlns="http://www.w3.org/2000/svg"
 width="512.000000pt" height="512.000000pt" viewBox="0 0 512.000000 512.000000"
 preserveAspectRatio="xMidYMid meet">

<g transform="translate(0.000000,512.000000) scale(0.100000,-0.100000)"
fill="#000000" stroke="none">
<path d="M78 5099 c-23 -12 -46 -35 -58 -59 -19 -37 -20 -58 -20 -370 0 -312
1 -333 20 -370 13 -26 34 -47 60 -60 37 -19 58 -20 375 -20 317 0 338 1 375
20 60 31 80 78 80 190 l0 90 307 0 307 0 -77 -52 c-447 -308 -749 -820 -817
-1388 -6 -52 -12 -95 -13 -95 -1 -1 -28 -14 -61 -29 -165 -79 -268 -279 -238
-460 32 -198 179 -345 376 -378 134 -22 282 27 382 126 207 208 163 552 -90
700 l-66 39 6 51 c66 571 403 1059 903 1307 97 47 293 120 322 118 8 0 34 -28
59 -62 50 -68 113 -115 198 -148 81 -32 223 -32 304 0 85 33 148 80 198 148
25 34 51 62 59 62 29 2 225 -71 322 -118 500 -248 837 -736 903 -1307 l6 -51
-66 -39 c-253 -148 -297 -492 -90 -700 259 -259 698 -113 758 252 30 181 -73
381 -238 460 -33 15 -60 28 -61 29 -1 0 -7 43 -13 95 -28 228 -87 432 -184
635 -150 311 -346 546 -628 748 l-80 57 306 0 306 0 0 -90 c0 -112 20 -159 80
-190 37 -19 58 -20 375 -20 317 0 338 1 375 20 26 13 47 34 60 60 19 37 20 58
20 370 0 312 -1 333 -20 370 -13 26 -34 47 -60 60 -37 19 -58 20 -375 20 -317
0 -338 -1 -375 -20 -60 -31 -80 -78 -80 -190 l0 -90 -612 0 -613 0 -30 57
c-64 122 -187 211 -325 235 -184 32 -377 -66 -465 -235 l-30 -57 -612 0 -613
0 0 90 c0 112 -20 159 -80 190 -37 19 -58 20 -377 20 -317 -1 -340 -2 -375
-21z"/>
<path d="M1818 2917 c-322 -485 -591 -892 -597 -904 -28 -56 -5 -118 76 -205
218 -236 380 -542 453 -861 21 -91 25 -98 44 -94 12 3 57 16 101 29 80 23 82
23 665 23 583 0 585 0 665 -23 44 -13 89 -26 101 -29 19 -4 23 3 44 94 73 319
235 625 453 861 88 95 105 149 68 220 -11 20 -281 429 -600 907 l-581 870 0
-710 0 -710 57 -30 c167 -87 265 -278 235 -459 -41 -247 -270 -418 -508 -378
-197 33 -344 180 -376 378 -30 181 68 372 235 459 l57 30 0 708 c0 389 -1 707
-2 707 -2 0 -267 -398 -590 -883z"/>
<path d="M2488 2089 c-43 -22 -78 -81 -78 -129 0 -50 35 -107 80 -130 21 -11
53 -20 70 -20 76 0 150 74 150 150 0 50 -35 107 -80 130 -49 25 -94 25 -142
-1z"/>
<path d="M1985 593 c-173 -37 -330 -164 -412 -333 -56 -115 -48 -176 31 -234
27 -21 34 -21 956 -21 922 0 929 0 956 21 79 58 87 119 31 234 -83 172 -240
297 -419 334 -110 23 -1037 22 -1143 -1z"/>
</g>
</svg>
