<?xml version="1.0" standalone="no"?>
<!DOCTYPE svg PUBLIC "-//W3C//DTD SVG 20010904//EN"
 "http://www.w3.org/TR/2001/REC-SVG-20010904/DTD/svg10.dtd">
<svg version="1.0" xmlns="http://www.w3.org/2000/svg"
 width="512.000000pt" height="512.000000pt" viewBox="0 0 512.000000 512.000000"
 preserveAspectRatio="xMidYMid meet">

<g transform="translate(0.000000,512.000000) scale(0.100000,-0.100000)"
fill="#000000" stroke="none">
<path d="M4485 5106 c-16 -8 -114 -99 -217 -203 l-188 -188 318 -318 317 -317
197 197 c164 166 198 204 203 235 15 78 8 88 -244 342 -130 131 -250 244 -268
252 -40 17 -79 17 -118 0z"/>
<path d="M3272 3903 l-592 -598 318 -317 317 -318 183 183 c101 100 367 369
592 598 l409 415 -318 318 -318 318 -591 -599z"/>
<path d="M361 3899 c-172 -34 -318 -182 -351 -358 -14 -74 -14 -2188 0 -2262
34 -180 179 -325 359 -359 30 -5 94 -10 142 -10 l89 0 0 -392 c0 -380 1 -393
21 -436 23 -46 77 -81 127 -82 61 0 101 35 537 470 l440 440 886 0 c561 0 906
4 940 10 180 34 325 179 359 359 6 34 10 337 10 809 l0 756 -247 -245 c-137
-135 -262 -255 -280 -268 -71 -48 -963 -503 -1025 -522 -53 -16 -81 -19 -135
-14 -37 3 -329 9 -648 13 -528 6 -583 9 -612 25 -38 20 -73 82 -73 127 0 50
35 107 80 130 37 19 58 20 432 20 l393 0 -3 94 c-3 65 1 111 12 148 13 45 381
773 494 978 27 51 92 122 290 323 l256 257 -1225 -1 c-673 -1 -1244 -5 -1268
-10z"/>
<path d="M2306 2678 c-187 -359 -200 -387 -200 -438 -1 -42 4 -63 21 -86 31
-44 86 -68 137 -60 41 5 787 384 793 402 2 5 -122 134 -275 287 l-277 277
-199 -382z"/>
</g>
</svg>