<?xml version="1.0" standalone="no"?>
<!DOCTYPE svg PUBLIC "-//W3C//DTD SVG 20010904//EN"
 "http://www.w3.org/TR/2001/REC-SVG-20010904/DTD/svg10.dtd">
<svg version="1.0" xmlns="http://www.w3.org/2000/svg"
 width="512.000000pt" height="512.000000pt" viewBox="0 0 512.000000 512.000000"
 preserveAspectRatio="xMidYMid meet">

<g transform="translate(0.000000,512.000000) scale(0.100000,-0.100000)"
fill="#000000" stroke="none">
<path d="M792 4257 c-56 -57 -82 -90 -82 -106 0 -16 26 -51 79 -106 49 -51 81
-94 85 -113 11 -46 -14 -89 -93 -167 -92 -91 -92 -99 0 -190 79 -78 104 -121
93 -167 -4 -19 -36 -62 -85 -113 -54 -56 -79 -90 -79 -106 0 -17 23 -47 75
-99 76 -76 102 -122 90 -162 -4 -13 -43 -60 -86 -104 -104 -107 -104 -112 0
-219 44 -45 83 -93 86 -108 11 -42 -9 -77 -90 -157 -52 -52 -75 -82 -75 -99 0
-16 25 -50 79 -106 49 -51 81 -94 85 -113 11 -46 -14 -89 -93 -167 -93 -91
-93 -99 4 -195 121 -121 121 -159 0 -280 -54 -54 -75 -82 -75 -100 0 -36 155
-190 190 -190 18 0 46 20 95 71 127 128 157 129 280 8 57 -55 89 -79 106 -79
17 0 45 21 94 71 126 128 154 128 279 8 54 -51 91 -79 106 -79 15 0 51 28 107
82 80 78 87 83 128 83 41 0 48 -5 128 -83 58 -57 92 -82 109 -82 16 0 42 19
78 56 63 64 82 76 104 68 22 -8 20 -17 -16 -91 -39 -81 -48 -163 -23 -216 23
-48 81 -85 174 -108 74 -19 111 -19 852 -17 l774 3 45 25 c65 37 90 79 90 155
0 35 -8 86 -19 116 -44 128 -241 509 -431 834 -48 83 -92 160 -99 173 -11 21
-8 27 43 74 77 70 75 81 -24 183 -121 124 -120 152 14 285 39 38 66 73 66 85
0 12 -27 47 -66 85 -134 133 -135 161 -14 285 55 57 80 90 80 107 0 16 -23 46
-75 98 -125 124 -125 155 -5 275 57 56 80 87 80 104 0 17 -24 49 -79 106 -119
122 -119 148 0 270 54 55 79 89 79 105 0 33 -157 190 -190 190 -16 0 -50 -25
-105 -79 -122 -119 -148 -119 -270 0 -55 53 -89 79 -105 79 -16 0 -50 -26
-105 -79 -45 -44 -93 -83 -108 -86 -47 -12 -79 4 -162 86 -57 55 -89 79 -106
79 -17 0 -45 -21 -94 -71 -126 -128 -154 -128 -279 -8 -54 51 -91 79 -106 79
-15 0 -51 -28 -107 -82 -80 -78 -87 -83 -128 -83 -41 0 -48 5 -128 83 -56 54
-92 82 -108 82 -15 0 -49 -26 -99 -75 -127 -123 -157 -124 -275 -5 -56 57 -87
80 -104 80 -17 0 -49 -24 -106 -79 -122 -119 -148 -119 -270 0 -57 55 -89 79
-106 79 -17 0 -48 -24 -107 -83z m1729 -349 c95 -47 177 -130 222 -225 30 -64
32 -75 32 -178 l0 -110 64 -12 c241 -46 408 -280 371 -520 -35 -224 -233 -393
-460 -393 -41 0 -59 -6 -100 -36 -84 -60 -181 -79 -262 -50 l-38 14 -2 -482
-3 -481 -25 0 c-25 0 -25 1 -30 104 l-5 105 -89 64 -89 65 -51 -16 c-84 -25
-124 -29 -184 -17 -134 28 -236 117 -312 274 -58 120 -87 221 -69 242 9 11 39
14 123 14 199 0 331 -45 425 -145 67 -71 92 -127 98 -227 l6 -78 68 -50 c38
-28 71 -50 74 -50 3 0 5 152 5 339 l0 339 -37 -14 c-82 -29 -180 -10 -262 50
-41 30 -57 36 -101 36 -70 0 -164 25 -227 61 -66 38 -154 133 -187 203 -128
270 38 593 333 649 l61 12 -6 55 c-19 170 88 369 239 447 89 45 125 53 238 50
99 -2 110 -4 180 -39z m930 -1569 c71 -22 101 -59 229 -281 67 -117 124 -215
125 -216 2 -2 23 8 48 22 50 30 79 33 97 11 19 -23 5 -263 -17 -287 -9 -10
-21 -18 -28 -18 -24 0 -246 111 -251 125 -12 31 6 60 51 85 25 13 45 28 45 32
0 16 -242 424 -261 440 -31 26 -92 42 -133 34 -55 -10 -90 -48 -169 -186 -54
-93 -79 -126 -95 -128 -13 -2 -25 3 -28 12 -5 13 55 125 138 258 55 88 152
126 249 97z m-443 -521 c14 -17 32 -258 21 -280 -16 -30 -46 -31 -98 -1 -28
15 -52 25 -54 23 -11 -11 -152 -258 -168 -295 -24 -52 -24 -79 2 -131 37 -77
66 -88 269 -94 167 -5 175 -6 175 -25 0 -19 -8 -20 -170 -23 -102 -2 -185 1
-207 8 -99 29 -165 148 -138 249 6 23 50 109 97 191 47 82 82 153 78 159 -3 6
-24 20 -46 31 -45 24 -61 62 -35 88 24 25 207 110 237 111 15 1 31 -5 37 -11z
m1076 -461 c73 -131 74 -214 3 -293 -56 -65 -70 -68 -297 -74 l-205 -5 -5 -65
c-5 -59 -7 -65 -31 -74 -23 -8 -40 0 -135 65 -98 67 -109 77 -109 104 0 27 11
37 109 104 95 65 112 73 135 65 24 -9 26 -15 31 -74 l5 -65 190 0 c161 0 195
3 222 17 46 25 75 73 81 129 4 44 0 57 -47 138 -52 93 -57 125 -17 119 15 -2
35 -29 70 -91z"/>
<path d="M2269 3889 c-218 -24 -379 -247 -340 -468 7 -39 10 -74 7 -79 -3 -5
-39 -12 -79 -15 -142 -10 -258 -91 -324 -225 -36 -72 -38 -81 -38 -171 0 -87
3 -102 32 -163 43 -91 101 -151 187 -193 67 -33 184 -59 174 -39 -2 5 -20 43
-41 84 -20 41 -40 90 -43 107 -6 29 -3 34 22 44 37 15 251 16 285 1 26 -10 27
-9 39 36 16 66 85 194 131 244 l39 43 39 -43 c46 -50 115 -178 131 -244 12
-45 13 -46 39 -36 34 15 248 14 285 -1 25 -10 28 -15 22 -44 -3 -17 -23 -66
-43 -107 -21 -41 -39 -79 -41 -84 -9 -18 115 5 176 34 199 93 284 337 187 535
-66 135 -205 225 -347 225 -32 0 -50 5 -54 14 -3 7 -1 43 4 80 18 139 -20 260
-115 354 -87 87 -203 126 -334 111z"/>
<path d="M2287 2963 c-46 -72 -69 -125 -82 -190 -8 -36 -18 -70 -23 -75 -6 -6
-28 -3 -58 8 -50 18 -235 26 -250 12 -12 -13 54 -134 104 -189 87 -97 190
-123 290 -73 l52 26 52 -26 c100 -50 203 -24 290 73 45 50 117 176 106 186
-15 15 -139 15 -203 0 -115 -26 -106 -31 -130 61 -20 79 -88 214 -112 221 -7
3 -23 -13 -36 -34z"/>
<path d="M1550 2200 c0 -6 14 -46 30 -89 56 -146 142 -251 239 -294 49 -22
157 -27 200 -10 22 9 13 17 -123 114 -115 81 -146 108 -144 124 2 11 10 21 19
23 9 1 79 -42 157 -98 78 -55 144 -100 147 -100 11 0 4 60 -12 111 -32 100
-136 181 -276 214 -72 17 -237 20 -237 5z"/>
<path d="M3813 1773 c-46 -26 -83 -49 -83 -53 0 -5 144 -80 154 -80 6 0 19
144 15 163 -3 14 -19 8 -86 -30z"/>
<path d="M2873 1726 l-82 -41 83 -47 c46 -27 86 -48 90 -48 8 0 6 129 -2 156
-7 21 -9 21 -89 -20z"/>
<path d="M3451 1075 c-35 -24 -68 -48 -73 -53 -7 -7 17 -28 66 -61 l76 -52 0
106 c0 58 -1 105 -2 104 -2 0 -32 -20 -67 -44z"/>
</g>
</svg>
