<?xml version="1.0" standalone="no"?>
<!DOCTYPE svg PUBLIC "-//W3C//DTD SVG 20010904//EN"
 "http://www.w3.org/TR/2001/REC-SVG-20010904/DTD/svg10.dtd">
<svg version="1.0" xmlns="http://www.w3.org/2000/svg"
 width="512.000000pt" height="512.000000pt" viewBox="0 0 512.000000 512.000000"
 preserveAspectRatio="xMidYMid meet">

<g transform="translate(0.000000,512.000000) scale(0.100000,-0.100000)"
fill="#000000" stroke="none">
<path d="M3630 5103 c-19 -10 -45 -33 -57 -52 -22 -33 -23 -40 -23 -290 0
-238 1 -258 20 -289 28 -45 76 -72 130 -72 62 0 106 29 131 86 19 41 20 63 17
289 -3 228 -4 245 -24 271 -50 68 -129 91 -194 57z"/>
<path d="M4484 5106 c-42 -19 -56 -38 -243 -351 -141 -237 -161 -276 -161
-313 0 -24 6 -55 14 -70 24 -45 268 -280 299 -287 64 -16 101 0 391 174 157
94 294 183 305 197 11 14 23 41 27 59 14 75 5 87 -245 339 -130 131 -250 244
-268 252 -40 17 -79 17 -119 0z"/>
<path d="M3586 4195 c-29 -10 -85 -59 -208 -182 l-168 -168 317 -317 318 -318
163 163 c90 89 170 175 179 192 19 35 20 103 3 136 -17 32 -425 443 -470 473
-46 31 -86 37 -134 21z"/>
<path d="M4483 3831 c-61 -28 -85 -71 -80 -143 2 -44 9 -64 28 -84 49 -52 59
-54 332 -54 247 0 255 1 288 23 91 61 89 181 -5 251 -26 20 -43 21 -274 24
-227 2 -250 1 -289 -17z"/>
<path d="M2880 3514 c-154 -155 -247 -229 -355 -280 -126 -60 -184 -73 -395
-89 -222 -17 -336 -44 -486 -115 -57 -27 -104 -52 -104 -57 0 -4 93 -101 206
-214 l207 -207 32 13 c156 66 352 24 478 -102 125 -125 168 -323 102 -479
l-13 -31 207 -207 c113 -113 209 -206 213 -206 13 0 79 140 109 230 38 111 57
218 64 370 8 155 33 267 85 377 54 117 92 166 257 333 l142 146 -317 317 -317
317 -115 -116z"/>
<path d="M872 2357 l-422 -422 743 -743 742 -742 425 425 425 425 -220 220
-220 220 -63 -20 c-189 -59 -399 13 -505 173 -76 115 -98 259 -57 389 l20 63
-218 218 c-119 119 -219 217 -222 217 -3 0 -195 -190 -428 -423z"/>
<path d="M2097 2286 c-48 -18 -62 -29 -81 -70 -62 -132 69 -262 201 -199 106
50 102 206 -7 261 -51 25 -61 26 -113 8z"/>
<path d="M157 1641 c-43 -45 -89 -105 -105 -138 -71 -141 -67 -301 10 -430 20
-33 205 -225 507 -526 523 -521 519 -518 661 -540 154 -24 277 21 410 150 l85
82 -740 741 c-407 407 -743 740 -746 740 -4 0 -41 -36 -82 -79z"/>
</g>
</svg>