<?xml version="1.0" standalone="no"?>
<!DOCTYPE svg PUBLIC "-//W3C//DTD SVG 20010904//EN"
 "http://www.w3.org/TR/2001/REC-SVG-20010904/DTD/svg10.dtd">
<svg version="1.0" xmlns="http://www.w3.org/2000/svg"
 width="512.000000pt" height="512.000000pt" viewBox="0 0 512.000000 512.000000"
 preserveAspectRatio="xMidYMid meet">

<g transform="translate(0.000000,512.000000) scale(0.100000,-0.100000)"
fill="#000000" stroke="none">
<path d="M3323 4841 c-68 -17 -143 -63 -192 -116 -68 -76 -95 -146 -95 -255 0
-108 27 -179 94 -253 83 -91 202 -132 334 -115 127 16 232 95 289 216 27 59
31 78 31 152 0 74 -4 93 -30 150 -68 142 -179 221 -322 226 -42 2 -91 -1 -109
-5z"/>
<path d="M3880 4191 c-75 -15 -697 -272 -760 -313 -91 -59 -169 -141 -213
-226 -38 -71 -49 -112 -122 -455 l-17 -79 -94 -60 -94 -60 43 -28 c97 -61 149
-160 149 -281 -1 -27 0 -49 2 -49 2 0 55 25 119 55 69 33 125 67 140 84 13 16
93 161 177 321 99 190 156 288 160 279 21 -38 119 -343 113 -349 -5 -4 -71
-45 -148 -91 -173 -103 -215 -141 -262 -237 -33 -66 -38 -85 -41 -166 -3 -88
-2 -97 56 -281 l59 -190 246 -3 c136 -1 247 1 247 5 0 5 -24 84 -54 177 -29
93 -51 177 -48 188 4 16 289 196 296 186 1 -2 35 -81 74 -176 66 -159 180
-368 206 -378 6 -2 127 -3 269 -2 l258 3 -115 181 c-112 176 -118 187 -202
415 -79 214 -85 237 -74 264 29 72 42 142 36 190 -3 28 -42 160 -85 295 -44
134 -79 245 -78 246 1 1 64 -34 140 -78 l137 -80 97 -142 c143 -209 170 -244
214 -273 90 -60 224 -32 285 60 22 33 29 56 32 108 3 41 -1 76 -8 90 -37 72
-243 398 -262 416 -31 28 -620 390 -672 414 -48 21 -154 31 -206 20z"/>
<path d="M1165 3912 c-216 -76 -317 -322 -217 -525 116 -234 428 -285 609
-100 182 188 130 489 -105 605 -57 28 -79 33 -152 36 -62 2 -99 -3 -135 -16z"/>
<path d="M890 3164 c-56 -11 -121 -37 -157 -63 -47 -34 -523 -589 -540 -630
-6 -15 -37 -129 -68 -252 -43 -168 -55 -233 -51 -262 24 -148 180 -228 314
-161 74 37 97 79 172 319 l65 208 104 116 c57 64 108 118 113 119 4 2 8 -117
8 -266 0 -196 4 -281 13 -313 13 -41 8 -103 -59 -710 -40 -365 -73 -670 -74
-676 0 -10 54 -13 240 -13 l239 0 6 33 c3 17 42 261 85 541 44 280 81 510 83
511 3 3 325 -70 355 -79 33 -11 42 -44 42 -157 l0 -99 235 0 235 0 0 198 c0
268 -21 344 -124 447 -60 60 -130 90 -319 138 l-167 42 0 213 c0 116 3 212 6
212 3 0 43 -27 89 -60 198 -143 320 -159 560 -74 55 20 127 44 159 55 68 21
110 57 137 114 26 55 24 102 -7 163 -19 38 -38 59 -70 78 -72 42 -105 42 -239
-5 -118 -41 -181 -50 -227 -32 -13 5 -91 64 -173 131 -83 68 -173 134 -201
147 -64 29 -148 39 -454 53 -129 6 -251 13 -270 15 -19 1 -46 1 -60 -1z"/>
<path d="M3357 1900 l-649 -5 -19 -24 c-18 -22 -19 -43 -19 -357 l0 -334 -570
0 -571 0 -24 -25 -25 -24 0 -350 0 -350 -536 -3 -536 -3 -19 -24 c-28 -35 -25
-85 7 -110 26 -21 35 -21 606 -21 l580 0 29 29 29 29 0 346 0 346 565 2 564 3
23 23 c23 22 23 24 26 362 l3 340 1075 0 c798 0 1081 3 1097 12 52 27 62 83
22 123 l-24 25 -493 -2 c-271 -2 -785 -5 -1141 -8z"/>
</g>
</svg>
