<?xml version="1.0" standalone="no"?>
<!DOCTYPE svg PUBLIC "-//W3C//DTD SVG 20010904//EN"
 "http://www.w3.org/TR/2001/REC-SVG-20010904/DTD/svg10.dtd">
<svg version="1.0" xmlns="http://www.w3.org/2000/svg"
 width="512.000000pt" height="512.000000pt" viewBox="0 0 512.000000 512.000000"
 preserveAspectRatio="xMidYMid meet">

<g transform="translate(0.000000,512.000000) scale(0.100000,-0.100000)"
fill="#000000" stroke="none">
<path d="M767 4975 c-128 -35 -266 -143 -319 -250 -86 -172 -80 -370 15 -513
l34 -49 -51 -28 c-82 -45 -205 -177 -248 -265 -64 -130 -87 -289 -52 -350 38
-63 5 -60 749 -60 745 0 718 -2 751 62 13 25 15 50 11 117 -11 192 -127 382
-296 486 -33 21 -61 39 -61 40 0 2 16 29 35 61 88 146 95 320 19 479 -35 76
-138 184 -212 223 -111 60 -261 78 -375 47z m229 -260 c49 -20 105 -76 130
-130 60 -128 -3 -287 -135 -342 -46 -20 -146 -20 -191 -1 -84 35 -148 121
-157 210 -20 194 172 337 353 263z m154 -769 c76 -28 147 -84 190 -148 22 -33
40 -67 40 -74 0 -12 -78 -14 -486 -14 l-485 0 7 23 c19 60 107 157 173 191 73
38 130 46 326 43 149 -3 200 -7 235 -21z"/>
<path d="M4070 4197 c-221 -75 -354 -257 -354 -482 0 -104 19 -177 71 -263 31
-51 33 -58 18 -67 -177 -105 -285 -242 -330 -420 -20 -80 -20 -179 2 -215 37
-63 9 -61 760 -58 l683 3 32 33 c33 32 33 34 32 125 0 73 -6 107 -26 165 -51
143 -146 262 -267 337 -33 21 -61 40 -61 42 0 2 11 21 25 43 181 287 34 668
-294 764 -81 24 -211 21 -291 -7z m229 -243 c30 -9 69 -30 92 -51 175 -158 69
-443 -165 -443 -221 0 -338 252 -193 416 75 85 160 110 266 78z m203 -786 c32
-15 73 -39 93 -55 38 -30 115 -136 115 -159 0 -12 -78 -14 -485 -14 -329 0
-485 3 -485 10 0 48 98 163 172 201 87 45 112 49 328 46 199 -2 207 -3 262
-29z"/>
<path d="M2490 3450 c-209 -28 -385 -192 -430 -401 -27 -120 4 -283 71 -379
18 -24 27 -46 21 -48 -37 -12 -136 -88 -189 -145 -77 -83 -138 -201 -158 -310
-20 -103 -19 -135 3 -177 39 -73 9 -70 752 -70 743 0 713 -3 752 70 16 29 18
47 13 100 -14 154 -70 282 -170 389 -51 55 -151 131 -187 143 -6 2 3 24 21 48
67 96 96 247 71 372 -51 263 -304 444 -570 408z m194 -284 c86 -50 128 -123
128 -221 0 -71 -17 -117 -63 -170 -136 -155 -393 -86 -438 117 -28 121 45 249
166 294 57 21 152 12 207 -20z m158 -768 c72 -33 146 -102 182 -168 l27 -50
-491 0 -490 0 21 41 c28 55 93 125 146 156 82 48 113 53 338 50 205 -2 211 -3
267 -29z"/>
<path d="M325 3182 c-65 -40 -60 78 -65 -1426 l-5 -1371 -92 -5 c-87 -5 -95
-7 -124 -36 -58 -59 -47 -151 24 -194 32 -20 70 -20 2497 -20 1952 0 2470 3
2490 13 33 17 70 74 70 109 0 35 -20 76 -50 103 -17 16 -41 21 -113 25 l-92 5
-5 985 c-5 1070 -2 1009 -61 1044 -24 14 -88 16 -574 16 -595 0 -582 1 -621
-57 -18 -27 -19 -64 -22 -1010 l-2 -983 -190 0 -190 0 0 590 c0 643 2 624 -56
669 -26 21 -34 21 -585 21 l-559 0 -38 -34 -37 -34 -3 -606 -2 -606 -190 0
-190 0 -2 1362 c-3 1333 -3 1364 -23 1395 -38 64 -27 63 -622 63 -504 0 -540
-1 -568 -18z m955 -1522 l0 -1280 -382 2 -383 3 -3 1278 -2 1277 385 0 385 0
0 -1280z m3325 -380 l0 -895 -382 -3 -383 -2 0 900 0 900 383 -2 382 -3 0
-895z m-1665 -385 l0 -515 -380 0 -380 0 0 515 0 515 380 0 380 0 0 -515z"/>
</g>
</svg>
